<mxfile host="65bd71144e">
    <diagram id="kgpKYQtTHZ0yAKxKKP6v" name="Page-1">
        <mxGraphModel dx="788" dy="624" grid="1" gridSize="10" guides="1" tooltips="1" connect="1" arrows="1" fold="1" page="1" pageScale="1" pageWidth="850" pageHeight="1100" background="none" math="0" shadow="0">
            <root>
                <mxCell id="0"/>
                <mxCell id="1" parent="0"/>
                <mxCell id="Xsg8cdTUO1w-pPByT-Sw-22" style="edgeStyle=orthogonalEdgeStyle;rounded=0;orthogonalLoop=1;jettySize=auto;html=1;endArrow=classic;endFill=1;strokeWidth=1;entryX=0.53;entryY=0.241;entryDx=0;entryDy=0;entryPerimeter=0;" parent="1" target="3nuBFxr9cyL0pnOWT2aG-5" edge="1">
                    <mxGeometry relative="1" as="geometry">
                        <mxPoint x="440" y="289" as="targetPoint"/>
                        <mxPoint x="680" y="422" as="sourcePoint"/>
                        <Array as="points">
                            <mxPoint x="730" y="422"/>
                            <mxPoint x="730" y="289"/>
                        </Array>
                    </mxGeometry>
                </mxCell>
                <mxCell id="Xsg8cdTUO1w-pPByT-Sw-12" value="" style="rounded=1;whiteSpace=wrap;html=1;" parent="1" vertex="1">
                    <mxGeometry x="110" y="337" width="570" height="120" as="geometry"/>
                </mxCell>
                <mxCell id="3nuBFxr9cyL0pnOWT2aG-1" value="Utilisateur" style="shape=umlLifeline;perimeter=lifelinePerimeter;container=1;collapsible=0;recursiveResize=0;rounded=0;shadow=0;strokeWidth=1;" parent="1" vertex="1">
                    <mxGeometry x="120" y="217" width="100" height="300" as="geometry"/>
                </mxCell>
                <mxCell id="3nuBFxr9cyL0pnOWT2aG-2" value="" style="points=[];perimeter=orthogonalPerimeter;rounded=0;shadow=0;strokeWidth=1;" parent="3nuBFxr9cyL0pnOWT2aG-1" vertex="1">
                    <mxGeometry x="45" y="70" width="10" height="210" as="geometry"/>
                </mxCell>
                <mxCell id="3nuBFxr9cyL0pnOWT2aG-3" value="dispatch" style="verticalAlign=bottom;startArrow=oval;endArrow=block;startSize=8;shadow=0;strokeWidth=1;" parent="3nuBFxr9cyL0pnOWT2aG-1" target="3nuBFxr9cyL0pnOWT2aG-2" edge="1">
                    <mxGeometry relative="1" as="geometry">
                        <mxPoint x="-15" y="70" as="sourcePoint"/>
                    </mxGeometry>
                </mxCell>
                <mxCell id="3nuBFxr9cyL0pnOWT2aG-5" value="Interface" style="shape=umlLifeline;perimeter=lifelinePerimeter;container=1;collapsible=0;recursiveResize=0;rounded=0;shadow=0;strokeWidth=1;" parent="1" vertex="1">
                    <mxGeometry x="377" y="217" width="100" height="300" as="geometry"/>
                </mxCell>
                <mxCell id="3nuBFxr9cyL0pnOWT2aG-6" value="" style="points=[];perimeter=orthogonalPerimeter;rounded=0;shadow=0;strokeWidth=1;" parent="3nuBFxr9cyL0pnOWT2aG-5" vertex="1">
                    <mxGeometry x="45" y="70" width="10" height="160" as="geometry"/>
                </mxCell>
                <mxCell id="3nuBFxr9cyL0pnOWT2aG-8" value="Entrer leur email et mot de pass" style="verticalAlign=bottom;endArrow=block;entryX=0;entryY=0;shadow=0;strokeWidth=1;" parent="1" edge="1">
                    <mxGeometry relative="1" as="geometry">
                        <mxPoint x="175" y="305.0000000000002" as="sourcePoint"/>
                        <mxPoint x="422" y="305.0000000000002" as="targetPoint"/>
                    </mxGeometry>
                </mxCell>
                <mxCell id="Xsg8cdTUO1w-pPByT-Sw-1" value="serveur" style="shape=umlLifeline;perimeter=lifelinePerimeter;container=1;collapsible=0;recursiveResize=0;rounded=0;shadow=0;strokeWidth=1;" parent="1" vertex="1">
                    <mxGeometry x="592" y="217" width="100" height="300" as="geometry"/>
                </mxCell>
                <mxCell id="Xsg8cdTUO1w-pPByT-Sw-2" value="" style="points=[];perimeter=orthogonalPerimeter;rounded=0;shadow=0;strokeWidth=1;" parent="Xsg8cdTUO1w-pPByT-Sw-1" vertex="1">
                    <mxGeometry x="45" y="90" width="10" height="130" as="geometry"/>
                </mxCell>
                <mxCell id="Xsg8cdTUO1w-pPByT-Sw-3" value="valider les informations" style="rounded=0;orthogonalLoop=1;jettySize=auto;html=1;" parent="1" edge="1">
                    <mxGeometry x="0.031" y="13" relative="1" as="geometry">
                        <mxPoint x="432" y="320" as="sourcePoint"/>
                        <mxPoint x="640" y="320" as="targetPoint"/>
                        <mxPoint as="offset"/>
                    </mxGeometry>
                </mxCell>
                <mxCell id="Xsg8cdTUO1w-pPByT-Sw-5" value="Accepter l'utilisatuer" style="edgeStyle=none;rounded=0;orthogonalLoop=1;jettySize=auto;html=1;endArrow=open;endFill=0;dashed=1;" parent="1" edge="1">
                    <mxGeometry x="0.0166" y="-11" relative="1" as="geometry">
                        <mxPoint x="637" y="358" as="sourcePoint"/>
                        <mxPoint x="430" y="358" as="targetPoint"/>
                        <mxPoint as="offset"/>
                    </mxGeometry>
                </mxCell>
                <mxCell id="Xsg8cdTUO1w-pPByT-Sw-13" value="si les info est correct" style="text;html=1;strokeColor=none;fillColor=none;align=center;verticalAlign=middle;whiteSpace=wrap;rounded=0;labelBorderColor=default;" parent="1" vertex="1">
                    <mxGeometry x="102" y="336" width="130" height="30" as="geometry"/>
                </mxCell>
                <mxCell id="Xsg8cdTUO1w-pPByT-Sw-15" value="Log in est aller a page d'accueill" style="edgeStyle=none;rounded=0;orthogonalLoop=1;jettySize=auto;html=1;dashed=1;endArrow=open;endFill=0;" parent="1" edge="1">
                    <mxGeometry x="-0.0121" y="-10" relative="1" as="geometry">
                        <mxPoint x="422" y="377" as="sourcePoint"/>
                        <mxPoint x="175" y="377" as="targetPoint"/>
                        <mxPoint as="offset"/>
                    </mxGeometry>
                </mxCell>
                <mxCell id="Xsg8cdTUO1w-pPByT-Sw-16" value="" style="endArrow=none;dashed=1;html=1;rounded=0;exitX=0;exitY=0.5;exitDx=0;exitDy=0;entryX=1;entryY=0.5;entryDx=0;entryDy=0;strokeWidth=2;" parent="1" source="Xsg8cdTUO1w-pPByT-Sw-12" target="Xsg8cdTUO1w-pPByT-Sw-12" edge="1">
                    <mxGeometry width="50" height="50" relative="1" as="geometry">
                        <mxPoint x="370" y="427" as="sourcePoint"/>
                        <mxPoint x="420" y="377" as="targetPoint"/>
                    </mxGeometry>
                </mxCell>
                <mxCell id="Xsg8cdTUO1w-pPByT-Sw-18" value="si les info est incorrect" style="text;html=1;strokeColor=none;fillColor=none;align=center;verticalAlign=middle;whiteSpace=wrap;rounded=0;labelBorderColor=default;" parent="1" vertex="1">
                    <mxGeometry x="106" y="395" width="128" height="20" as="geometry"/>
                </mxCell>
                <mxCell id="Xsg8cdTUO1w-pPByT-Sw-19" value="refuser l'utilisatuer" style="edgeStyle=none;rounded=0;orthogonalLoop=1;jettySize=auto;html=1;dashed=1;endArrow=open;endFill=0;strokeWidth=1;" parent="1" edge="1">
                    <mxGeometry x="0.0439" y="-15" relative="1" as="geometry">
                        <mxPoint x="637" y="422" as="sourcePoint"/>
                        <mxPoint x="432" y="422" as="targetPoint"/>
                        <mxPoint as="offset"/>
                    </mxGeometry>
                </mxCell>
                <mxCell id="Xsg8cdTUO1w-pPByT-Sw-20" value="Afficher les information est incorrect" style="edgeStyle=none;rounded=0;orthogonalLoop=1;jettySize=auto;html=1;dashed=1;endArrow=open;endFill=0;strokeWidth=1;" parent="1" edge="1">
                    <mxGeometry x="-0.0121" y="-11" relative="1" as="geometry">
                        <mxPoint x="422" y="438" as="sourcePoint"/>
                        <mxPoint x="175" y="438" as="targetPoint"/>
                        <mxPoint as="offset"/>
                    </mxGeometry>
                </mxCell>
                <mxCell id="Xsg8cdTUO1w-pPByT-Sw-21" style="edgeStyle=none;rounded=0;orthogonalLoop=1;jettySize=auto;html=1;entryX=1;entryY=0.5;entryDx=0;entryDy=0;dashed=1;endArrow=open;endFill=0;strokeWidth=1;" parent="1" source="Xsg8cdTUO1w-pPByT-Sw-12" target="Xsg8cdTUO1w-pPByT-Sw-12" edge="1">
                    <mxGeometry relative="1" as="geometry"/>
                </mxCell>
                <mxCell id="Xsg8cdTUO1w-pPByT-Sw-23" value="retourner a la page de log in" style="text;html=1;strokeColor=none;fillColor=none;align=center;verticalAlign=middle;whiteSpace=wrap;rounded=0;rotation=90;" parent="1" vertex="1">
                    <mxGeometry x="692" y="337" width="120" height="30" as="geometry"/>
                </mxCell>
                <mxCell id="Xsg8cdTUO1w-pPByT-Sw-24" style="edgeStyle=orthogonalEdgeStyle;rounded=0;orthogonalLoop=1;jettySize=auto;html=1;endArrow=classic;endFill=1;strokeWidth=1;entryX=0.53;entryY=0.241;entryDx=0;entryDy=0;entryPerimeter=0;" parent="1" target="Xsg8cdTUO1w-pPByT-Sw-29" edge="1">
                    <mxGeometry relative="1" as="geometry">
                        <mxPoint x="448" y="729" as="targetPoint"/>
                        <mxPoint x="688" y="862" as="sourcePoint"/>
                        <Array as="points">
                            <mxPoint x="738" y="862"/>
                            <mxPoint x="738" y="729"/>
                        </Array>
                    </mxGeometry>
                </mxCell>
                <mxCell id="Xsg8cdTUO1w-pPByT-Sw-25" value="" style="rounded=1;whiteSpace=wrap;html=1;" parent="1" vertex="1">
                    <mxGeometry x="118" y="777" width="570" height="120" as="geometry"/>
                </mxCell>
                <mxCell id="Xsg8cdTUO1w-pPByT-Sw-26" value="Utilisateur" style="shape=umlLifeline;perimeter=lifelinePerimeter;container=1;collapsible=0;recursiveResize=0;rounded=0;shadow=0;strokeWidth=1;" parent="1" vertex="1">
                    <mxGeometry x="128" y="657" width="100" height="300" as="geometry"/>
                </mxCell>
                <mxCell id="Xsg8cdTUO1w-pPByT-Sw-27" value="" style="points=[];perimeter=orthogonalPerimeter;rounded=0;shadow=0;strokeWidth=1;" parent="Xsg8cdTUO1w-pPByT-Sw-26" vertex="1">
                    <mxGeometry x="45" y="70" width="10" height="210" as="geometry"/>
                </mxCell>
                <mxCell id="Xsg8cdTUO1w-pPByT-Sw-28" value="dispatch" style="verticalAlign=bottom;startArrow=oval;endArrow=block;startSize=8;shadow=0;strokeWidth=1;" parent="Xsg8cdTUO1w-pPByT-Sw-26" target="Xsg8cdTUO1w-pPByT-Sw-27" edge="1">
                    <mxGeometry relative="1" as="geometry">
                        <mxPoint x="-15" y="70" as="sourcePoint"/>
                    </mxGeometry>
                </mxCell>
                <mxCell id="Xsg8cdTUO1w-pPByT-Sw-29" value="Interface" style="shape=umlLifeline;perimeter=lifelinePerimeter;container=1;collapsible=0;recursiveResize=0;rounded=0;shadow=0;strokeWidth=1;" parent="1" vertex="1">
                    <mxGeometry x="385" y="657" width="100" height="300" as="geometry"/>
                </mxCell>
                <mxCell id="Xsg8cdTUO1w-pPByT-Sw-30" value="" style="points=[];perimeter=orthogonalPerimeter;rounded=0;shadow=0;strokeWidth=1;" parent="Xsg8cdTUO1w-pPByT-Sw-29" vertex="1">
                    <mxGeometry x="45" y="70" width="10" height="160" as="geometry"/>
                </mxCell>
                <mxCell id="Xsg8cdTUO1w-pPByT-Sw-31" value="Entrer leur cordoner" style="verticalAlign=bottom;endArrow=block;entryX=0;entryY=0;shadow=0;strokeWidth=1;" parent="1" edge="1">
                    <mxGeometry relative="1" as="geometry">
                        <mxPoint x="183" y="745.0000000000003" as="sourcePoint"/>
                        <mxPoint x="430" y="745.0000000000003" as="targetPoint"/>
                    </mxGeometry>
                </mxCell>
                <mxCell id="Xsg8cdTUO1w-pPByT-Sw-32" value="serveur" style="shape=umlLifeline;perimeter=lifelinePerimeter;container=1;collapsible=0;recursiveResize=0;rounded=0;shadow=0;strokeWidth=1;" parent="1" vertex="1">
                    <mxGeometry x="600" y="657" width="100" height="300" as="geometry"/>
                </mxCell>
                <mxCell id="Xsg8cdTUO1w-pPByT-Sw-33" value="" style="points=[];perimeter=orthogonalPerimeter;rounded=0;shadow=0;strokeWidth=1;" parent="Xsg8cdTUO1w-pPByT-Sw-32" vertex="1">
                    <mxGeometry x="45" y="90" width="10" height="130" as="geometry"/>
                </mxCell>
                <mxCell id="Xsg8cdTUO1w-pPByT-Sw-34" value="valider les informations" style="rounded=0;orthogonalLoop=1;jettySize=auto;html=1;" parent="1" edge="1">
                    <mxGeometry x="0.031" y="13" relative="1" as="geometry">
                        <mxPoint x="440" y="760" as="sourcePoint"/>
                        <mxPoint x="648" y="760" as="targetPoint"/>
                        <mxPoint as="offset"/>
                    </mxGeometry>
                </mxCell>
                <mxCell id="Xsg8cdTUO1w-pPByT-Sw-35" value="Accepter l'utilisatuer" style="edgeStyle=none;rounded=0;orthogonalLoop=1;jettySize=auto;html=1;endArrow=open;endFill=0;dashed=1;" parent="1" edge="1">
                    <mxGeometry x="0.0166" y="-11" relative="1" as="geometry">
                        <mxPoint x="645" y="798" as="sourcePoint"/>
                        <mxPoint x="438" y="798" as="targetPoint"/>
                        <mxPoint as="offset"/>
                    </mxGeometry>
                </mxCell>
                <mxCell id="Xsg8cdTUO1w-pPByT-Sw-36" value="si les info est correct" style="text;html=1;strokeColor=none;fillColor=none;align=center;verticalAlign=middle;whiteSpace=wrap;rounded=0;labelBorderColor=default;" parent="1" vertex="1">
                    <mxGeometry x="110" y="776" width="130" height="30" as="geometry"/>
                </mxCell>
                <mxCell id="Xsg8cdTUO1w-pPByT-Sw-37" value="registrer l'unilisateur est aller a page de log in" style="edgeStyle=none;rounded=0;orthogonalLoop=1;jettySize=auto;html=1;dashed=1;endArrow=open;endFill=0;" parent="1" edge="1">
                    <mxGeometry x="-0.0121" y="-10" relative="1" as="geometry">
                        <mxPoint x="430" y="817" as="sourcePoint"/>
                        <mxPoint x="183" y="817" as="targetPoint"/>
                        <mxPoint as="offset"/>
                    </mxGeometry>
                </mxCell>
                <mxCell id="Xsg8cdTUO1w-pPByT-Sw-38" value="" style="endArrow=none;dashed=1;html=1;rounded=0;exitX=0;exitY=0.5;exitDx=0;exitDy=0;entryX=1;entryY=0.5;entryDx=0;entryDy=0;strokeWidth=2;" parent="1" source="Xsg8cdTUO1w-pPByT-Sw-25" target="Xsg8cdTUO1w-pPByT-Sw-25" edge="1">
                    <mxGeometry width="50" height="50" relative="1" as="geometry">
                        <mxPoint x="378" y="867" as="sourcePoint"/>
                        <mxPoint x="428" y="817" as="targetPoint"/>
                    </mxGeometry>
                </mxCell>
                <mxCell id="Xsg8cdTUO1w-pPByT-Sw-39" value="si les info est incorrect" style="text;html=1;strokeColor=none;fillColor=none;align=center;verticalAlign=middle;whiteSpace=wrap;rounded=0;labelBorderColor=default;" parent="1" vertex="1">
                    <mxGeometry x="114" y="835" width="128" height="20" as="geometry"/>
                </mxCell>
                <mxCell id="Xsg8cdTUO1w-pPByT-Sw-40" value="refuser l'utilisatuer" style="edgeStyle=none;rounded=0;orthogonalLoop=1;jettySize=auto;html=1;dashed=1;endArrow=open;endFill=0;strokeWidth=1;" parent="1" edge="1">
                    <mxGeometry x="0.0439" y="-15" relative="1" as="geometry">
                        <mxPoint x="645" y="862" as="sourcePoint"/>
                        <mxPoint x="440" y="862" as="targetPoint"/>
                        <mxPoint as="offset"/>
                    </mxGeometry>
                </mxCell>
                <mxCell id="Xsg8cdTUO1w-pPByT-Sw-41" value="Afficher les information est incorrect" style="edgeStyle=none;rounded=0;orthogonalLoop=1;jettySize=auto;html=1;dashed=1;endArrow=open;endFill=0;strokeWidth=1;" parent="1" edge="1">
                    <mxGeometry x="-0.0121" y="-11" relative="1" as="geometry">
                        <mxPoint x="430" y="878" as="sourcePoint"/>
                        <mxPoint x="183" y="878" as="targetPoint"/>
                        <mxPoint as="offset"/>
                    </mxGeometry>
                </mxCell>
                <mxCell id="Xsg8cdTUO1w-pPByT-Sw-42" style="edgeStyle=none;rounded=0;orthogonalLoop=1;jettySize=auto;html=1;entryX=1;entryY=0.5;entryDx=0;entryDy=0;dashed=1;endArrow=open;endFill=0;strokeWidth=1;" parent="1" source="Xsg8cdTUO1w-pPByT-Sw-25" target="Xsg8cdTUO1w-pPByT-Sw-25" edge="1">
                    <mxGeometry relative="1" as="geometry"/>
                </mxCell>
                <mxCell id="Xsg8cdTUO1w-pPByT-Sw-43" value="retourner a la page de registration" style="text;html=1;strokeColor=none;fillColor=none;align=center;verticalAlign=middle;whiteSpace=wrap;rounded=0;rotation=90;" parent="1" vertex="1">
                    <mxGeometry x="700" y="777" width="120" height="30" as="geometry"/>
                </mxCell>
                <mxCell id="Xsg8cdTUO1w-pPByT-Sw-46" value="&lt;font style=&quot;font-size: 36px&quot;&gt;Registration&lt;/font&gt;" style="text;html=1;strokeColor=none;fillColor=none;align=center;verticalAlign=middle;whiteSpace=wrap;rounded=0;labelBorderColor=none;" parent="1" vertex="1">
                    <mxGeometry x="374" y="587" width="100" height="30" as="geometry"/>
                </mxCell>
                <mxCell id="Xsg8cdTUO1w-pPByT-Sw-47" value="&lt;span style=&quot;font-size: 36px&quot;&gt;Log in&lt;/span&gt;" style="text;html=1;strokeColor=none;fillColor=none;align=center;verticalAlign=middle;whiteSpace=wrap;rounded=0;labelBorderColor=none;" parent="1" vertex="1">
                    <mxGeometry x="345" y="147" width="145" height="30" as="geometry"/>
                </mxCell>
            </root>
        </mxGraphModel>
    </diagram>
</mxfile>